<?xml version="1.0" encoding="utf-8"?>
<!-- Generator: Adobe Illustrator 18.1.1, SVG Export Plug-In . SVG Version: 6.00 Build 0)  -->
<svg version="1.1" id="Layer_1" xmlns="http://www.w3.org/2000/svg" xmlns:xlink="http://www.w3.org/1999/xlink" x="0px" y="0px"
	 viewBox="0 0 48.2 48.2" enable-background="new 0 0 48.2 48.2" xml:space="preserve">
<path fill="none" stroke="#DBC598" stroke-width="1.44" stroke-linecap="round" stroke-linejoin="round" stroke-miterlimit="22.9256" d="
	M7.8,17.3c-0.2-0.2-0.3-0.4-0.3-0.7v17.2c0,0.3,0.1,0.6,0.3,0.8c0.7,0.8,1.4,1.4,2.1,2.1l2,1.4c0.2,0.1,0.4,0.2,0.6,0.4
	c0.6,0.3,1.1,0.6,1.7,0.8l2,0.7c0.8,0.2,1.6,0.4,2.4,0.6l2,0.3c0.8,0.1,1.6,0.1,2.4,0.1l2-0.1c0.7,0,1.4-0.1,2.1-0.2l0.3,0l2-0.4
	c0.8-0.2,1.6-0.4,2.4-0.6l2-0.7c0.9-0.3,1.6-0.7,2.4-1.1l2-1.3c0.1-0.1,0.3-0.2,0.4-0.3c0.7-0.6,1.3-1.3,1.7-2l0,0
	c0.1-0.2,0.1-0.3,0.1-0.5c0-5.3-0.1-17.5-0.1-17.5"/>
<line fill="none" stroke="#DBC598" stroke-width="1.44" stroke-linecap="round" stroke-linejoin="round" stroke-miterlimit="22.9256" x1="11.5" y1="30.5" x2="11.5" y2="37.5"/>
<line fill="none" stroke="#DBC598" stroke-width="1.44" stroke-linecap="round" stroke-linejoin="round" stroke-miterlimit="22.9256" x1="15.7" y1="32.2" x2="15.7" y2="39.3"/>
<line fill="none" stroke="#DBC598" stroke-width="1.44" stroke-linecap="round" stroke-linejoin="round" stroke-miterlimit="22.9256" x1="19.8" y1="33.4" x2="19.8" y2="40.4"/>
<line fill="none" stroke="#DBC598" stroke-width="1.44" stroke-linecap="round" stroke-linejoin="round" stroke-miterlimit="22.9256" x1="24" y1="28.4" x2="24" y2="40.4"/>
<line fill="none" stroke="#DBC598" stroke-width="1.44" stroke-linecap="round" stroke-linejoin="round" stroke-miterlimit="22.9256" x1="28.1" y1="33.1" x2="28.1" y2="40.1"/>
<line fill="none" stroke="#DBC598" stroke-width="1.44" stroke-linecap="round" stroke-linejoin="round" stroke-miterlimit="22.9256" x1="32.3" y1="32.2" x2="32.3" y2="39.3"/>
<line fill="none" stroke="#DBC598" stroke-width="1.44" stroke-linecap="round" stroke-linejoin="round" stroke-miterlimit="22.9256" x1="36.4" y1="30.5" x2="36.4" y2="37.5"/>
<path fill="none" stroke="#DBC598" stroke-width="1.44" stroke-linecap="round" stroke-linejoin="round" stroke-miterlimit="22.9256" d="
	M23.8,15.2c0-0.8,1.2-1.4,2.7-1.4c1.5,0,2.7,0.6,2.7,1.4c0,1.6-2.4,2.8-5.5,2.8c-3,0-5.5-1.3-5.5-2.8c0-2.3,3.7-4.2,8.2-4.2
	c4.5,0,8.2,1.9,8.2,4.2c0,3.1-4.9,5.6-10.9,5.6c-6,0-10.9-2.5-10.9-5.6c0-3.9,6.1-7,13.6-7c7.5,0,13.6,3.1,13.6,7
	c0,4.7-7.3,8.4-16.4,8.4c-9,0-16.4-3.8-16.4-8.4"/>
</svg>
