<?xml version="1.0" encoding="utf-8"?>
<!-- Generator: Adobe Illustrator 18.1.1, SVG Export Plug-In . SVG Version: 6.00 Build 0)  -->
<svg version="1.1" id="Layer_1" xmlns="https://www.w3.org/2000/svg" xmlns:xlink="https://www.w3.org/1999/xlink" x="0px" y="0px"
	 viewBox="0 0 48.2 48.2" enable-background="new 0 0 48.2 48.2" xml:space="preserve">
<path fill="none" stroke="#DBC598" stroke-width="1.44" stroke-linecap="round" stroke-linejoin="round" stroke-miterlimit="22.9256" d="
	M31.6,12c2.8,0,3.2,0,9.9,0l-9.5,24.5c-1.3,3.4-2.3,5.6-2.5,5.6l-19.7,0c-4,0-3-6.2-1.9-8.8c2.6-6.1,10-22.1,11-24.6
	c0.3-0.7,1.1-1.2,1.7-1.2h9.9c0.8,0,1.5,0.7,1.5,1.7c0,0.6-0.1,1.5-0.5,2.6L20.4,37.7c-0.4,1-1.4,1.9-2.7,1.9c-2.5,0-4.8,0-7.6,0
	c-1.1,0-1.2-2.9,0.1-2.9c1.9,0,5.9,0,7.8,0"/>
</svg>
